<?xml version="1.0" encoding="UTF-8" standalone="no"?>
<svg
   xmlns:dc="http://purl.org/dc/elements/1.1/"
   xmlns:cc="http://creativecommons.org/ns#"
   xmlns:rdf="http://www.w3.org/1999/02/22-rdf-syntax-ns#"
   xmlns:svg="http://www.w3.org/2000/svg"
   xmlns="http://www.w3.org/2000/svg"
   xmlns:sodipodi="http://sodipodi.sourceforge.net/DTD/sodipodi-0.dtd"
   xmlns:inkscape="http://www.inkscape.org/namespaces/inkscape"
   version="1.0"
   width="6154.000000pt"
   height="1335.000000pt"
   viewBox="0 0 6154.000000 1335.000000"
   preserveAspectRatio="xMidYMid meet"
   id="svg2"
   inkscape:version="0.92.0 r15299"
   sodipodi:docname="License_plate_in_DNR.svg">
  <defs
     id="defs34" />
  <sodipodi:namedview
     pagecolor="#ffffff"
     bordercolor="#666666"
     borderopacity="1"
     objecttolerance="1"
     gridtolerance="1"
     guidetolerance="1"
     inkscape:pageopacity="0"
     inkscape:pageshadow="2"
     inkscape:window-width="1280"
     inkscape:window-height="753"
     id="namedview32"
     showgrid="false"
     inkscape:zoom="0.063609735"
     inkscape:cx="3898.355"
     inkscape:cy="1903.1227"
     inkscape:window-x="-4"
     inkscape:window-y="-4"
     inkscape:window-maximized="1"
     inkscape:current-layer="svg2"
     showguides="false" />
  <metadata
     id="metadata4">
Created by potrace 1.12, written by Peter Selinger 2001-2015
<rdf:RDF>
  <cc:Work
     rdf:about="">
    <dc:format>image/svg+xml</dc:format>
    <dc:type
       rdf:resource="http://purl.org/dc/dcmitype/StillImage" />
    <dc:title />
  </cc:Work>
</rdf:RDF>
</metadata>
  <rect
     style="opacity:1;fill:#ffffff;fill-opacity:1;stroke:#000000;stroke-width:0.10959999;stroke-miterlimit:4;stroke-dasharray:none;stroke-dashoffset:0;stroke-opacity:1"
     id="rect4147"
     width="6181.4438"
     height="1351.9944"
     x="-6.2883458"
     y="-4.4176221"
     rx="8"
     ry="8" />
  <g
     transform="translate(0.000000,1335.000000) scale(0.100000,-0.100000)"
     fill="#000000"
     stroke="none"
     id="g6">
    <path
       d="M1675 13309 c-307 -27 -716 -188 -945 -372 -147 -119 -288 -266 -376 -394 -146 -212 -260 -502 -304 -775 -20 -127 -20 -151 -20 -5042 0 -3447 3 -4953 11 -5043 29 -345 184 -734 394 -988 192 -231 338 -346 620 -487 187 -94 355 -143 576 -168 174 -20 287 -20 29189 -17 27748 2 29021 3 29145 20 245 33 495 132 757 298 441 280 745 805 788 1359 8 105 10 1484 8 5045 l-3 4900 -23 125 c-42 230 -88 383 -159 525 -123 245 -260 417 -493 619 -240 208 -638 367 -989 395 -166 13 -58022 13 -58176 0z m58176 -70 c255 -20 497 -95 727 -226 193 -109 429 -330 564 -528 154 -224 223 -402 280 -715 l23 -125 3 -4900 c2 -3561 0 -4940 -8 -5045 -42 -539 -331 -1031 -768 -1309 -253 -160 -470 -245 -707 -278 -124 -17 -1401 -18 -29140 -21 l-29010 -2 -180 20 c-290 32 -492 106 -770 282 -188 119 -406 354 -528 569 -128 226 -205 471 -226 722 -8 90 -11 1596 -11 5043 0 4892 0 4915 20 5042 61 377 226 708 477 953 149 145 239 215 374 292 218 123 475 206 704 226 154 13 58010 13 58176 0z"
       id="path8" />
    <path
       d="m 1795,12795 c -82,-13 -179,-32 -215,-43 -99,-30 -286,-122 -391,-192 -190,-128 -282,-219 -409,-410 -105,-156 -146,-258 -227,-565 -17,-67 -18,-241 -21,-4840 l -3,-4770 21,-155 c 26,-188 45,-256 115,-412 64,-144 154,-284 250,-390 77,-84 243,-225 315,-265 25,-15 66,-39 92,-55 46,-29 132,-63 284,-112 38,-13 115,-29 170,-35 77,-10 6547,-12 29059,-9 l 28960,3 139,44 c 194,61 368,146 491,241 55,42 229,220 285,290 53,67 96,142 162,279 65,137 101,254 118,376 8,57 10,1477 8,4950 l -3,4870 -43,140 c -110,361 -314,638 -621,845 -97,65 -256,135 -382,168 -63,17 -145,39 -184,49 -68,17 -960,18 -28945,19 l -28875,2 z m 42595,-467 c 155,-32 191,-43 332,-107 146,-65 300,-185 406,-316 69,-84 164,-260 204,-375 62,-180 58,174 58,-4850 0,-4492 -1,-4597 -19,-4705 -25,-140 -47,-201 -122,-344 -134,-252 -343,-440 -604,-544 -70,-28 -120,-42 -231,-62 -71,-13 -2850,-15 -21440,-13 l -21029,3 -120,43 c -129,45 -213,86 -285,139 -193,141 -297,252 -381,408 -54,101 -78,165 -124,327 -9,32 -20,111 -26,175 -6,76 -9,1729 -7,4638 3,4182 5,4527 20,4608 10,48 20,92 23,97 3,5 9,28 14,52 34,163 214,436 378,571 170,141 424,245 653,267 41,4 9484,6 20985,6 18877,-2 21247,-4 21315,-18 z m 15145,0 c 180,-40 229,-57 384,-136 195,-99 384,-288 478,-477 54,-107 109,-281 123,-385 18,-135 9,-9329 -9,-9390 -107,-357 -197,-494 -461,-705 -97,-78 -250,-154 -370,-184 -172,-43 191,-41 -6706,-39 l -6169,3 -120,43 c -122,43 -224,91 -260,122 -11,10 -36,26 -55,35 -19,10 -60,40 -90,67 -216,194 -350,436 -401,723 -18,108 -4.324,208.0242 -19,4655 v 4545 l 24,145 c 14,80 34,171 45,202 57,163 229,406 368,521 173,143 420,245 643,266 47,5 2628,8 6140,7 5747,-2 6392,-4 6455,-18 z"
       id="path10"
       inkscape:connector-curvature="0"
       sodipodi:nodetypes="ccccccccccccccccccccccccccccccccccscccccccccccccscccccscccccscccccccsccccccs" />
    <path
       d="M13870 11265 c-120 -14 -326 -57 -415 -85 -33 -11 -78 -24 -100 -29 -50 -12 -207 -76 -350 -144 -139 -65 -331 -184 -415 -257 -36 -31 -92 -77 -125 -102 -73 -56 -270 -254 -321 -323 -20 -27 -49 -63 -64 -80 -45 -50 -236 -365 -274 -450 -147 -334 -207 -555 -241 -878 -22 -213 -17 -272 25 -310 l31 -27 555 2 556 3 29 33 c22 25 29 42 29 75 1 50 35 292 45 307 3 5 10 31 15 58 8 47 90 252 113 283 6 9 36 52 66 95 30 44 77 107 105 142 56 70 208 199 295 250 118 69 279 142 346 158 39 8 95 23 125 31 32 10 111 18 190 21 330 11 634 -83 891 -275 85 -63 228 -209 288 -293 64 -90 186 -335 202 -405 6 -27 18 -77 27 -110 14 -48 17 -107 17 -295 l0 -235 -34 -110 c-19 -60 -46 -135 -59 -165 -20 -42 -489 -599 -1926 -2284 -1120 -1313 -1910 -2248 -1923 -2275 -23 -46 -23 -46 -23 -614 0 -540 1 -570 19 -605 11 -21 31 -43 46 -50 20 -9 613 -12 2555 -12 l2529 0 28 26 28 26 3 566 c1 312 0 577 -3 589 -3 12 -22 32 -42 45 l-38 23 -1690 5 -1690 5 -3 21 c-2 17 359 446 1460 1736 805 942 1486 1745 1514 1783 71 96 139 205 179 284 18 36 49 95 68 131 20 36 65 151 100 256 110 324 147 545 147 874 0 379 -44 604 -194 992 -40 104 -132 282 -207 401 -131 206 -210 299 -429 505 -121 113 -201 179 -300 245 -165 110 -470 262 -635 317 -156 51 -408 107 -565 125 -150 17 -415 17 -560 0z"
       id="path12" />
    <path
       d="M20260 11265 c-153 -18 -508 -103 -576 -137 -16 -9 -54 -23 -84 -33 -69 -22 -313 -140 -405 -196 -143 -87 -348 -252 -524 -423 -83 -80 -235 -274 -321 -411 -77 -123 -180 -314 -195 -365 -4 -14 -22 -59 -40 -100 -19 -41 -46 -120 -61 -175 -14 -55 -33 -122 -40 -149 -8 -28 -18 -85 -24 -129 -5 -43 -14 -95 -20 -116 -5 -21 -14 -109 -19 -196 -9 -145 -8 -161 9 -195 10 -20 30 -41 45 -48 19 -9 164 -12 549 -12 288 0 538 3 555 6 39 8 71 57 71 110 1 84 40 293 73 389 62 179 72 201 142 311 90 141 140 200 262 307 228 202 527 323 825 334 365 14 712 -108 972 -343 149 -134 176 -168 305 -383 70 -118 121 -276 146 -455 16 -112 17 -148 7 -285 -9 -136 -16 -173 -52 -291 -23 -74 -49 -146 -58 -160 -9 -14 -869 -1028 -1911 -2253 -1043 -1226 -1906 -2242 -1918 -2258 -12 -17 -24 -53 -28 -82 -3 -29 -5 -295 -3 -592 3 -591 3 -586 63 -613 20 -9 616 -12 2555 -12 l2530 0 32 29 33 29 3 549 c3 619 4 612 -63 650 l-40 23 -1682 0 -1683 0 -6 27 c-5 17 -3 28 5 31 13 4 2874 3365 2954 3469 116 152 239 368 319 563 69 166 144 421 158 535 5 44 14 98 20 120 15 61 12 520 -5 665 -49 434 -238 895 -516 1262 -83 110 -354 385 -452 460 -205 156 -566 350 -797 426 -127 42 -396 100 -550 117 -149 18 -415 17 -560 0z"
       id="path14" />
    <path
       d="M24406 11268 c-11 -6 -30 -22 -43 -36 l-23 -25 0 -543 c0 -369 3 -551 11 -567 6 -13 23 -31 39 -40 26 -16 169 -17 1862 -17 l1835 0 21 -23 c12 -13 22 -35 22 -49 0 -15 -625 -1723 -1390 -3797 -764 -2073 -1390 -3778 -1390 -3789 0 -11 9 -31 21 -46 l20 -26 588 0 587 0 42 31 c24 17 49 44 58 60 8 16 642 1737 1409 3825 l1395 3795 0 583 0 583 -23 34 c-12 18 -34 39 -47 46 -34 17 -4965 18 -4994 1z"
       id="path16" />
    <path
       d="M6765 9149 c-71 -5 -160 -15 -197 -24 -37 -8 -79 -15 -94 -15 -26 0 -108 -22 -295 -80 -114 -36 -344 -138 -449 -199 -258 -151 -279 -167 -486 -347 -144 -126 -315 -307 -400 -424 -198 -271 -287 -425 -448 -774 -91 -198 -230 -697 -265 -951 -26 -184 -50 -479 -51 -600 -1 -309 65 -776 156 -1105 116 -421 375 -953 590 -1210 149 -180 189 -225 284 -323 58 -61 139 -136 180 -169 41 -32 100 -78 130 -103 94 -76 342 -224 510 -303 167 -79 281 -118 464 -156 225 -48 355 -59 629 -54 214 5 243 8 372 37 288 65 639 203 821 324 152 100 257 175 326 232 99 80 346 332 417 425 32 42 66 82 75 90 54 44 72 147 35 195 -20 25 -664 461 -736 499 -18 9 -42 16 -53 16 -33 0 -79 -31 -102 -68 -28 -46 -302 -298 -358 -330 -25 -14 -56 -35 -70 -48 -43 -38 -290 -151 -405 -184 -151 -44 -271 -59 -465 -60 -299 0 -433 37 -665 183 -199 126 -460 426 -574 661 -158 325 -195 431 -273 801 -35 167 -45 253 -57 483 -13 227 1 486 34 657 14 72 25 146 25 166 0 20 7 56 16 80 8 24 21 73 29 109 29 135 99 328 172 474 81 163 153 292 192 346 98 135 272 316 377 395 133 100 320 179 499 210 117 21 313 17 410 -8 33 -8 84 -20 113 -26 64 -13 286 -106 399 -167 132 -72 420 -325 511 -449 40 -56 84 -111 110 -138 14 -15 28 -18 73 -15 52 4 87 22 468 238 433 246 451 259 451 326 0 37 -18 70 -109 200 -132 187 -339 409 -562 602 -121 105 -389 274 -549 347 -139 64 -392 152 -515 180 -72 17 -489 66 -535 64 -14 -1 -83 -6 -155 -10z"
       id="path18" />
    <path
       d="m 31912,9142 c -18,-10 -42,-32 -52,-50 -20,-32 -20,-70 -20,-3358 0,-3035 1,-3328 16,-3357 35,-70 9,-67 515,-67 485,0 468,-2 503,50 15,22 16,137 16,1358 v 1334 l 22,39 c 42,74 -55,70 1433,67 l 1330,-3 37,-23 c 26,-16 40,-34 48,-60 6,-24 10,-488 10,-1359 0,-929 3,-1329 11,-1346 26,-57 26,-57 521,-57 h 454 l 30,31 29,30 3,3342 c 3,3164 2,3344 -15,3375 -9,19 -34,42 -55,53 -35,18 -63,19 -459,19 -410,0 -423,-1 -455,-21 -69,-42 -64,79 -64,-1439 0,-934 -3,-1387 -11,-1413 -7,-26 -21,-44 -42,-57 -31,-19 -63,-20 -1398,-20 h -1366 l -20,23 c -11,12 -26,32 -32,44 -8,16 -11,403 -11,1415 v 1394 l -27,26 c -53,48 -49,48 -495,48 -383,-1 -426,-2 -456,-18 z"
       id="path20"
       inkscape:connector-curvature="0" />
    <path
       d="m 40414,9016 c -54,-25 -91,-63 -100,-105 -15,-66 -2007,-6497 -2015,-6508 -6,-6 -7,-23 -3,-37 14,-57 5,-56 544,-56 h 496 l 42,31 c 24,17 49,48 58,68 8,20 105,326 215,681 110,355 206,663 214,685 17,45 64,82 122,96 21,5 436,8 923,8 h 885 l 55,-27 c 42,-21 61,-38 82,-74 17,-29 103,-300 223,-695 107,-357 202,-662 210,-680 7,-17 31,-44 51,-60 l 37,-28 499,-3 c 324,-2 505,1 517,8 11,5 22,23 26,38 4,21 -250,855 -1005,3298 -556,1798 -1019,3283 -1028,3299 -10,18 -40,41 -71,58 l -55,27 h -435 -436 z m 513,-1985 c 24,-39 623,-1980 623,-2020 0,-31 -6,-44 -26,-60 -26,-21 -35,-21 -630,-21 h -603 l -25,33 -26,34 38,119 c 22,65 162,522 312,1014 151,492 278,901 283,908 14,18 41,15 54,-7 z"
       id="path22"
       inkscape:connector-curvature="0" />
  </g>
  <g
     id="g5087"
     transform="matrix(0.94473874,0,0,1,322.56414,0)">
    <path
       id="path30"
       d="m 47182,3938 c -17,-17 -17,-2549 0,-2566 17,-17 11159,-17 11176,0 17,17 17,2549 0,2566 -17,17 -11159,17 -11176,0 z M 58300,2655 v -385 h -5530 -5530 v 385 385 h 5530 5530 z m 0,-840 v -385 h -5530 -5530 v 385 385 h 5530 5530 z"
       transform="matrix(0.1,0,0,-0.1,0,1335)"
       inkscape:connector-curvature="0" />
    <path
       transform="scale(0.8)"
       inkscape:connector-curvature="0"
       id="path3362"
       d="m 5905.6208,1336.5274 v -47.9392 h 690.6019 690.602 v 47.9392 47.9392 h -690.602 -690.6019 z"
       style="opacity:1;fill:#0000ff;fill-opacity:1;stroke:#000000;stroke-width:2;stroke-linecap:round;stroke-linejoin:round;stroke-miterlimit:4;stroke-dasharray:none;stroke-dashoffset:0;stroke-opacity:1" />
    <path
       transform="scale(0.8)"
       inkscape:connector-curvature="0"
       id="path3364"
       d="m 5905.6208,1442.1325 v -47.9391 h 690.6019 690.602 v 47.9391 47.9392 h -690.602 -690.6019 z"
       style="opacity:1;fill:#ff0000;fill-opacity:1;stroke:#000000;stroke-width:2;stroke-linecap:round;stroke-linejoin:round;stroke-miterlimit:4;stroke-dasharray:none;stroke-dashoffset:0;stroke-opacity:1" />
  </g>
  <path
     style="fill:#000000;stroke:#000000;stroke-width:0.75px;stroke-linecap:butt;stroke-linejoin:miter;stroke-opacity:1"
     d="m 4787.0032,524.39295 1.4738,334.55964 c 49.6195,0.52512 99.2342,1.47382 148.857,1.47382 22.5096,-2.2858 40.8571,-8.84682 61.9008,-16.21213 58.2907,-30.26387 64.4235,-80.76918 66.3225,-134.11862 1.8008,-41.19331 -3.8063,-84.47863 -13.2645,-117.90648 -8.2359,-24.80507 -16.6858,-29.57558 -35.372,-47.1626 -23.1055,-16.90285 -44.9232,-21.49497 -72.2177,-25.05512 z"
     id="path5089"
     inkscape:connector-curvature="0"
     sodipodi:nodetypes="ccccccccc" />
  <path
     style="fill:#ffffff;stroke:#000000;stroke-width:0.75px;stroke-linecap:butt;stroke-linejoin:miter;stroke-opacity:1;fill-opacity:1"
     d="m 4838.5873,595.13684 1.4738,194.54567 c 8.7132,17.12005 11.3651,16.09641 28.0028,25.05518 h 81.0607 c 38.4046,-10.1335 50.2914,-32.36296 63.3748,-57.4794 11.1265,-33.46917 6.6383,-65.29666 5.8953,-100.22055 0.4302,-29.22744 -13.8999,-43.06887 -29.4767,-61.9009 -20.2454,-14.28673 -31.4137,-16.97014 -54.5317,-22.10746 -40.3473,-3.59793 -75.242,-6.32832 -95.799,22.10746 z"
     id="path5091"
     inkscape:connector-curvature="0"
     sodipodi:nodetypes="ccccccccc" />
  <path
     style="fill:#000000;stroke:#000000;stroke-width:0.75px;stroke-linecap:butt;stroke-linejoin:miter;stroke-opacity:1"
     d="m 5175.8674,860.81911 45.8548,0.52103 V 746.18192 c 1.6466,-14.71878 12.5377,-23.7284 23.9696,-27.61713 h 19.8009 l 56.2765,0.52108 c 8.0299,0.53997 15.6573,0.1063 23.4485,-1.56323 11.3265,-2.87309 21.1949,-10.39072 31.0041,-16.41396 14.3509,-9.331 20.4551,-19.33046 30.4831,-32.56737 15.306,-23.0702 14.0566,-40.15255 13.548,-64.09259 -0.8238,-11.11761 -3.6737,-21.3743 -7.2951,-31.78575 -5.705,-10.3546 -14.3976,-17.61228 -22.9274,-25.53283 -11.7073,-8.77005 -24.9178,-14.59505 -38.0387,-20.84311 -11.0415,-4.84429 -22.5761,-5.53033 -34.3911,-6.77402 l -134.9592,1.04216 -6.774,4.16862 -3.6476,5.21078 -2.0843,14.06911 0.5211,25.53282 0.7816,291.28259 z"
     id="path43"
     inkscape:connector-curvature="0"
     sodipodi:nodetypes="ccccccccccccccccccccc" />
  <path
     style="fill:#ffffff;stroke:#000000;stroke-width:0.75px;stroke-linecap:butt;stroke-linejoin:miter;stroke-opacity:1"
     d="m 5243.3284,570.02597 c -7.4693,3.52319 -11.5087,9.431 -17.0375,15.32709 -3.5944,4.42437 -5.7451,9.04703 -7.1741,14.40596 v 48.46025 c 6.693,15.01758 11.5422,20.84927 29.1804,25.53282 l 82.3303,-0.52108 c 7.0993,-1.90271 12.7463,-5.89215 18.7588,-9.90048 7.0878,-5.25057 12.3158,-11.9177 17.7167,-18.75881 5.4661,-7.28885 6.4236,-14.74513 7.8162,-23.4485 0.5912,-6.95596 -2.2031,-11.70133 -5.2108,-17.71665 -4.3131,-7.92101 -14.1384,-14.63004 -22.1459,-19.41016 -8.102,-4.59982 -14.0978,-8.39342 -22.6668,-11.33344 -9.2234,-3.71302 -19.378,-4.94509 -29.1804,-5.73186 h -44.2917 z"
     id="path45"
     inkscape:connector-curvature="0"
     sodipodi:nodetypes="ccccccccccccccc" />
  <path
     style="fill:#000000;stroke:#000000;stroke-width:0.75px;stroke-linecap:butt;stroke-linejoin:miter;stroke-opacity:1"
     d="m 5523.814,536.92051 0.7369,322.03208 h 51.6888 l -0.7369,-117.16957 c -1.4519,-7.55942 -0.2086,-14.07997 1.4738,-21.37054 7.5126,-11.37458 9.6203,-10.48035 22.1074,-15.47523 12.2034,-2.96275 24.4376,-1.88744 36.8458,-1.47383 11.785,3.95825 15.6718,6.81239 24.3183,14.73831 l 93.5883,134.11861 c 7.2924,6.09778 13.1297,7.0686 22.1074,8.84302 8.4114,-0.34685 11.1012,-1.50464 17.7307,-5.80597 5.9441,-5.79224 5.6543,-11.45501 7.3244,-19.2492 0.1857,-5.86599 -1.7239,-10.82028 -3.6845,-16.21215 l -62.6378,-87.69292 c -7.878,-8.51621 -5.3413,-13.77287 -0.737,-22.10746 5.2895,-8.01726 12.9947,-14.04532 19.8968,-20.63363 15.524,-8.62203 23.2338,-13.51638 30.9504,-24.31821 7.6917,-10.1338 12.1149,-20.36204 16.2121,-32.42429 4.9372,-17.1844 1.5677,-35.70965 -1.4738,-50.84717 -5.1825,-15.82176 -17.4959,-28.54355 -28.0028,-38.3196 -13.7417,-12.59082 -25.0463,-16.16401 -42.0042,-22.84439 h -9.5799 l -185.0704,1.47383 c -8.4912,2.87223 -11.0538,6.68637 -11.0538,14.73831 z"
     id="path47"
     inkscape:connector-curvature="0"
     sodipodi:nodetypes="cccccccccccccccccccccccc" />
  <path
     style="fill:#ffffff;stroke:#000000;stroke-width:0.75px;stroke-linecap:butt;stroke-linejoin:miter;stroke-opacity:1"
     d="m 5590.084,576.71396 c -7.2977,4.49871 -10.6339,10.50346 -14.7382,17.68596 -4.4229,10.74185 -4.4216,21.08824 -4.4216,32.42429 7.8411,19.01575 11.5572,19.77999 28.0029,28.00279 l 113.642,-1.47384 c 14.8949,-1.31868 30.8042,-11.92807 34.635,-25.05512 1.4389,-17.02099 -2.2209,-29.92476 -8.0613,-36.80875 -6.1201,-5.8813 -13.2349,-9.61712 -20.6784,-13.43561 l -11.0537,-2.81356 z"
     id="path49"
     inkscape:connector-curvature="0"
     sodipodi:nodetypes="cccccccccc" />
</svg>
