<?xml version="1.0" encoding="UTF-8" standalone="no"?>
<svg
   xmlns:dc="http://purl.org/dc/elements/1.1/"
   xmlns:cc="http://creativecommons.org/ns#"
   xmlns:rdf="http://www.w3.org/1999/02/22-rdf-syntax-ns#"
   xmlns:svg="http://www.w3.org/2000/svg"
   xmlns="http://www.w3.org/2000/svg"
   xmlns:sodipodi="http://sodipodi.sourceforge.net/DTD/sodipodi-0.dtd"
   xmlns:inkscape="http://www.inkscape.org/namespaces/inkscape"
   version="1.0"
   width="6154.000000pt"
   height="1335.000000pt"
   viewBox="0 0 6154.000000 1335.000000"
   preserveAspectRatio="xMidYMid meet"
   id="svg2"
   inkscape:version="0.91 r13725"
   sodipodi:docname="License_plate_in_DNR_2.svg">
  <defs
     id="defs34" />
  <sodipodi:namedview
     pagecolor="#ffffff"
     bordercolor="#666666"
     borderopacity="1"
     objecttolerance="10"
     gridtolerance="10"
     guidetolerance="10"
     inkscape:pageopacity="0"
     inkscape:pageshadow="2"
     inkscape:window-width="1920"
     inkscape:window-height="1017"
     id="namedview32"
     showgrid="false"
     inkscape:zoom="0.1799155"
     inkscape:cx="4025.4808"
     inkscape:cy="1296.4919"
     inkscape:window-x="-4"
     inkscape:window-y="-4"
     inkscape:window-maximized="1"
     inkscape:current-layer="svg2"
     showguides="false" />
  <metadata
     id="metadata4">
Created by potrace 1.12, written by Peter Selinger 2001-2015
<rdf:RDF>
  <cc:Work
     rdf:about="">
    <dc:format>image/svg+xml</dc:format>
    <dc:type
       rdf:resource="http://purl.org/dc/dcmitype/StillImage" />
    <dc:title />
  </cc:Work>
</rdf:RDF>
</metadata>
  <rect
     style="opacity:1;fill:#ffffff;fill-opacity:1;stroke:none;stroke-width:0.40000001;stroke-miterlimit:4;stroke-dasharray:1.2, 0.4;stroke-dashoffset:0;stroke-opacity:1"
     id="rect4168"
     width="6470.708"
     height="1509.2029"
     x="-167.73538"
     y="-88.171425"
     rx="8"
     ry="8" />
  <rect
     style="opacity:0;fill:#ffffff;fill-opacity:1;stroke:#000000;stroke-width:0.10959999;stroke-miterlimit:4;stroke-dasharray:none;stroke-dashoffset:0;stroke-opacity:1"
     id="rect4146"
     width="6162.8931"
     height="1342.8527"
     x="7.2256141"
     y="7.1544275"
     rx="8"
     ry="8" />
  <path
     style="fill:#000000;stroke:none"
     inkscape:connector-curvature="0"
     id="path8"
     d="M 167.5,4.1 C 136.8,6.8 95.9,22.9 73,41.3 58.3,53.2 44.2,67.9 35.4,80.7 20.8,101.9 9.4,130.9 5,158.2 3,170.9 3,173.3 3,662.4 c 0,344.7 0.3,495.3 1.1,504.3 2.9,34.5 18.4,73.4 39.4,98.8 19.2,23.1 33.8,34.6 62,48.7 18.7,9.4 35.5,14.3 57.6,16.8 17.4,2 28.7,2 2918.9,1.7 2774.8,-0.2 2902.1,-0.3 2914.5,-2 24.5,-3.3 49.5,-13.2 75.7,-29.8 44.1,-28 74.5,-80.5 78.8,-135.9 0.8,-10.5 1,-148.4 0.8,-504.5 l -0.3,-490 -2.3,-12.5 c -4.2,-23 -8.8,-38.3 -15.9,-52.5 C 6121,81 6107.3,63.8 6084,43.6 6060,22.8 6020.2,6.9 5985.1,4.1 5968.5,2.8 182.9,2.8 167.5,4.1 Z m 5817.6,7 c 25.5,2 49.7,9.5 72.7,22.6 19.3,10.9 42.9,33 56.4,52.8 15.4,22.4 22.3,40.2 28,71.5 l 2.3,12.5 0.3,490 c 0.2,356.1 0,494 -0.8,504.5 -4.2,53.9 -33.1,103.1 -76.8,130.9 -25.3,16 -47,24.5 -70.7,27.8 -12.4,1.7 -140.1,1.8 -2914,2.1 l -2901,0.2 -18,-2 c -29,-3.2 -49.2,-10.6 -77,-28.2 C 67.7,1283.9 45.9,1260.4 33.7,1238.9 20.9,1216.3 13.2,1191.8 11.1,1166.7 10.3,1157.7 10,1007.1 10,662.4 10,173.2 10,170.9 12,158.2 18.1,120.5 34.6,87.4 59.7,62.9 74.6,48.4 83.6,41.4 97.1,33.7 c 21.8,-12.3 47.5,-20.6 70.4,-22.6 15.4,-1.3 5801,-1.3 5817.6,0 z" />
  <path
     style="fill:#000000;stroke:none"
     inkscape:connector-curvature="0"
     id="path10"
     d="m 179.5,55.5 c -8.2,1.3 -17.9,3.2 -21.5,4.3 -9.9,3 -28.6,12.2 -39.1,19.2 -19,12.8 -28.2,21.9 -40.9,41 -10.5,15.6 -14.6,25.8 -22.7,56.5 -1.7,6.7 -1.8,24.1 -2.1,484 l -0.3,477 2.1,15.5 c 2.6,18.8 4.5,25.6 11.5,41.2 6.4,14.4 15.4,28.4 25,39 7.7,8.4 24.3,22.5 31.5,26.5 2.5,1.5 6.6,3.9 9.2,5.5 4.6,2.9 13.2,6.3 28.4,11.2 3.8,1.3 11.5,2.9 17,3.5 7.7,1 654.7,1.2 2905.9,0.9 l 2896,-0.3 13.9,-4.4 c 19.4,-6.1 36.8,-14.6 49.1,-24.1 5.5,-4.2 22.9,-22 28.5,-29 5.3,-6.7 9.6,-14.2 16.2,-27.9 6.5,-13.7 10.1,-25.4 11.8,-37.6 0.8,-5.7 1,-147.7 0.8,-495 l -0.3,-487 -4.3,-14 c -11,-36.1 -31.4,-63.8 -62.1,-84.5 -9.7,-6.5 -25.6,-13.5 -38.2,-16.8 -6.3,-1.7 -14.5,-3.9 -18.4,-4.9 -6.8,-1.7 -96,-1.8 -2894.5,-1.9 L 194.5,53.2 Z m 4360.1273,46.7 c 15.5,3.2 19.1,4.3 33.2,10.7 14.6,6.5 30,18.5 40.6,31.6 6.9,8.4 16.4,26 20.4,37.5 6.2,18 5.8,-17.4 5.8,485 0,449.2 -0.1,459.7 -1.9,470.5 -2.5,14 -4.7,20.1 -12.2,34.4 -13.4,25.2 -34.3,44 -60.4,54.4 -7,2.8 -12,4.2 -23.1,6.2 -7.1,1.3 -385.6273,1.5 -2244.6273,1.3 l -2102.9,-0.3 -12,-4.3 c -12.9,-4.5 -21.3,-8.6 -28.5,-13.9 -19.3,-14.1 -29.7,-25.2 -38.1,-40.8 -5.4,-10.1 -7.8,-16.5 -12.4,-32.7 -0.9,-3.2 -2,-11.1 -2.6,-17.5 -0.6,-7.6 -0.9,-172.9 -0.7,-463.8 0.3,-418.2 0.5,-452.7 2,-460.8 1,-4.8 2,-9.2 2.3,-9.7 0.3,-0.5 0.9,-2.8 1.4,-5.2 3.4,-16.3 21.4,-43.6 37.8,-57.1 17,-14.1 42.4,-24.5 65.3,-26.7 4.1,-0.4 948.4,-0.6 2098.5,-0.6 1887.7,0.2 2225.3273,0.4 2232.1273,1.8 z m 1413.8727,0 c 18,4 22.9,5.7 38.4,13.6 19.5,9.9 38.4,28.8 47.8,47.7 5.4,10.7 10.9,28.1 12.3,38.5 1.8,13.5 0.9,932.9 -0.9,939 -10.7,35.7 -19.7,49.4 -46.1,70.5 -9.7,7.8 -25,15.4 -37,18.4 -17.2,4.3 19.1,4.1 -670.6,3.9 l -516.2727,-0.3 -12,-4.3 c -12.2,-4.3 -22.4,-9.1 -26,-12.2 -1.1,-1 -3.6,-2.6 -5.5,-3.5 -1.9,-1 -6,-4 -9,-6.7 -21.6,-19.4 -35,-43.6 -40.1,-72.3 -1.8,-10.8 -3.4381,-20.8027 -1.9,-465.5 l 0,-454.5 2.4,-14.5 c 1.4,-8 3.4,-17.1 4.5,-20.2 5.7,-16.3 22.9,-40.6 36.8,-52.1 17.3,-14.3 42,-24.5 64.3,-26.6 4.7,-0.5 162.1727,-0.8 513.3727,-0.7 574.7,0.2 639.2,0.4 645.5,1.8 z"
     sodipodi:nodetypes="ccccccccccccccccccccccccccccccccccscccccccccccccscccccscccccscccccccsccccccs" />
  <path
     style="fill:#000000;stroke:none"
     inkscape:connector-curvature="0"
     id="path12"
     d="m 1556.7853,208.49999 c -12,1.4 -32.6,5.7 -41.5,8.5 -3.3,1.1 -7.8,2.4 -10,2.9 -5,1.2 -20.7,7.6 -35,14.4 -13.9,6.5 -33.1,18.4 -41.5,25.7 -3.6,3.1 -9.2,7.7 -12.5,10.2 -7.3,5.6 -27,25.4 -32.1,32.3 -2,2.7 -4.9,6.3 -6.4,8 -4.5,5 -23.6,36.5 -27.4,45 -14.7,33.4 -20.7,55.5 -24.1,87.8 -2.2,21.3 -1.7,27.2 2.5,31 l 3.1,2.7 55.5,-0.2 55.6,-0.3 2.9,-3.3 c 2.2,-2.5 2.9,-4.2 2.9,-7.5 0.1,-5 3.5,-29.2 4.5,-30.7 0.3,-0.5 1,-3.1 1.5,-5.8 0.8,-4.7 9,-25.2 11.3,-28.3 0.6,-0.9 3.6,-5.2 6.6,-9.5 3,-4.4 7.7,-10.7 10.5,-14.2 5.6,-7 20.8,-19.9 29.5,-25 11.8,-6.9 27.9,-14.2 34.6,-15.8 3.9,-0.8 9.5,-2.3 12.5,-3.1 3.2,-1 11.1,-1.8 19,-2.1 33,-1.1 63.4,8.3 89.1,27.5 8.5,6.3 22.8,20.9 28.8,29.3 6.4,9 18.6,33.5 20.2,40.5 0.6,2.7 1.8,7.7 2.7,11 1.4,4.8 1.7,10.7 1.7,29.5 l 0,23.5 -3.4,11 c -1.9,6 -4.6,13.5 -5.9,16.5 -2,4.2 -48.9,59.9 -192.6,228.4 -112,131.3 -191,224.80001 -192.3,227.50001 -2.3,4.6 -2.3,4.6 -2.3,61.4 0,54 0.1,57 1.9,60.5 1.1,2.1 3.1,4.3 4.6,5 2,0.9 61.3,1.2 255.5,1.2 l 252.9,0 2.8,-2.6 2.8,-2.6 0.3,-56.6 c 0.1,-31.2 0,-57.7 -0.3,-58.9 -0.3,-1.2 -2.2,-3.2 -4.2,-4.5 l -3.8,-2.3 -169,-0.5 -169,-0.5 -0.3,-2.1 c -0.2,-1.7 35.9,-44.60001 146,-173.60001 80.5,-94.2 148.6,-174.5 151.4,-178.3 7.1,-9.6 13.9,-20.5 17.9,-28.4 1.8,-3.6 4.9,-9.5 6.8,-13.1 2,-3.6 6.5,-15.1 10,-25.6 11,-32.4 14.7,-54.5 14.7,-87.4 0,-37.9 -4.4,-60.4 -19.4,-99.2 -4,-10.4 -13.2,-28.2 -20.7,-40.1 -13.1,-20.6 -21,-29.9 -42.9,-50.5 -12.1,-11.3 -20.1,-17.9 -30,-24.5 -16.5,-11 -47,-26.2 -63.5,-31.7 -15.6,-5.1 -40.8,-10.7 -56.5,-12.5 -15,-1.7 -41.5,-1.7 -56,0 z" />
  <path
     style="fill:#000000;stroke:none"
     inkscape:connector-curvature="0"
     id="path14"
     d="m 2195.7853,208.49999 c -15.3,1.8 -50.8,10.3 -57.6,13.7 -1.6,0.9 -5.4,2.3 -8.4,3.3 -6.9,2.2 -31.3,14 -40.5,19.6 -14.3,8.7 -34.8,25.2 -52.4,42.3 -8.3,8 -23.5,27.4 -32.1,41.1 -7.7,12.3 -18,31.4 -19.5,36.5 -0.4,1.4 -2.2,5.9 -4,10 -1.9,4.1 -4.6,12 -6.1,17.5 -1.4,5.5 -3.3,12.2 -4,14.9 -0.8,2.8 -1.8,8.5 -2.4,12.9 -0.5,4.3 -1.4,9.5 -2,11.6 -0.5,2.1 -1.4,10.9 -1.9,19.6 -0.9,14.5 -0.8,16.1 0.9,19.5 1,2 3,4.1 4.5,4.8 1.9,0.9 16.4,1.2 54.9,1.2 28.8,0 53.8,-0.3 55.5,-0.6 3.9,-0.8 7.1,-5.7 7.1,-11 0.1,-8.4 4,-29.3 7.3,-38.9 6.2,-17.9 7.2,-20.1 14.2,-31.1 9,-14.1 14,-20 26.2,-30.7 22.8,-20.2 52.7,-32.3 82.5,-33.4 36.5,-1.4 71.2,10.8 97.2,34.3 14.9,13.4 17.6,16.8 30.5,38.3 7,11.8 12.1,27.6 14.6,45.5 1.6,11.2 1.7,14.8 0.7,28.5 -0.9,13.6 -1.6,17.3 -5.2,29.1 -2.3,7.4 -4.9,14.6 -5.8,16 -0.9,1.4 -86.9,102.8 -191.1,225.3 -104.3,122.6 -190.6,224.20001 -191.8,225.80001 -1.2,1.7 -2.4,5.3 -2.8,8.2 -0.3,2.9 -0.5,29.5 -0.3,59.2 0.3,59.1 0.3,58.6 6.3,61.3 2,0.9 61.6,1.2 255.5,1.2 l 253,0 3.2,-2.9 3.3,-2.9 0.3,-54.9 c 0.3,-61.9 0.4,-61.2 -6.3,-65 l -4,-2.3 -168.2,0 -168.3,0 -0.6,-2.7 c -0.5,-1.7 -0.3,-2.8 0.5,-3.1 1.3,-0.4 287.4,-336.50001 295.4,-346.90001 11.6,-15.2 23.9,-36.8 31.9,-56.3 6.9,-16.6 14.4,-42.1 15.8,-53.5 0.5,-4.4 1.4,-9.8 2,-12 1.5,-6.1 1.2,-52 -0.5,-66.5 -4.9,-43.4 -23.8,-89.5 -51.6,-126.2 -8.3,-11 -35.4,-38.5 -45.2,-46 -20.5,-15.6 -56.6,-35 -79.7,-42.6 -12.7,-4.2 -39.6,-10 -55,-11.7 -14.9,-1.8 -41.5,-1.7 -56,0 z" />
  <path
     style="fill:#000000;stroke:none"
     inkscape:connector-curvature="0"
     id="path16"
     d="m 2610.3853,208.19999 c -1.1,0.6 -3,2.2 -4.3,3.6 l -2.3,2.5 0,54.3 c 0,36.9 0.3,55.1 1.1,56.7 0.6,1.3 2.3,3.1 3.9,4 2.6,1.6 16.9,1.7 186.2,1.7 l 183.5,0 2.1,2.3 c 1.2,1.3 2.2,3.5 2.2,4.9 0,1.5 -62.5,172.3 -139,379.7 -76.4,207.3 -139,377.80001 -139,378.90001 0,1.1 0.9,3.1 2.1,4.6 l 2,2.6 58.8,0 58.7,0 4.2,-3.1 c 2.4,-1.7 4.9,-4.4 5.8,-6 0.8,-1.6 64.2,-173.70001 140.9,-382.50001 l 139.5,-379.5 0,-58.3 0,-58.3 -2.3,-3.4 c -1.2,-1.8 -3.4,-3.9 -4.7,-4.6 -3.4,-1.7 -496.5,-1.8 -499.4,-0.1 z" />
  <path
     style="fill:#000000;stroke:none"
     inkscape:connector-curvature="0"
     id="path18"
     d="m 772.39727,420.18977 c -7.1,0.5 -16,1.5 -19.7,2.4 -3.7,0.8 -7.9,1.5 -9.4,1.5 -2.6,0 -10.8,2.2 -29.5,8 -11.4,3.6 -34.4,13.8 -44.9,19.9 -25.8,15.1 -27.9,16.7 -48.6,34.7 -14.4,12.6 -31.5,30.7 -40,42.4 -19.8,27.1 -28.7,42.5 -44.8,77.4 -9.1,19.8 -23,69.7 -26.5,95.1 -2.6,18.4 -5,47.9 -5.1,60 -0.1,30.9 6.5,77.6 15.6,110.5 11.6,42.1 37.5,95.3 59,121 14.9,18.00003 18.9,22.50003 28.4,32.30003 5.8,6.1 13.9,13.6 18,16.9 4.1,3.2 10,7.8 13,10.3 9.4,7.6 34.2,22.4 51,30.3 16.7,7.9 28.1,11.8 46.4,15.6 22.5,4.8 35.5,5.9 62.9,5.4 21.4,-0.5 24.3,-0.8 37.2,-3.7 28.8,-6.5 63.9,-20.3 82.1,-32.4 15.2,-10 25.7,-17.5 32.6,-23.2 9.9,-8 34.6,-33.2 41.7,-42.5 3.2,-4.2 6.6,-8.20003 7.5,-9.00003 5.40003,-4.4 7.20003,-14.7 3.50003,-19.5 -2,-2.5 -66.40003,-46.1 -73.60003,-49.9 -1.8,-0.9 -4.2,-1.6 -5.3,-1.6 -3.3,0 -7.9,3.1 -10.2,6.8 -2.8,4.6 -30.2,29.8 -35.8,33 -2.5,1.4 -5.6,3.5 -7,4.8 -4.3,3.8 -29,15.1 -40.5,18.4 -15.1,4.4 -27.1,5.9 -46.5,6 -29.9,0 -43.3,-3.7 -66.5,-18.3 -19.9,-12.6 -46,-42.6 -57.4,-66.1 -15.8,-32.5 -19.5,-43.1 -27.3,-80.1 -3.5,-16.7 -4.5,-25.3 -5.7,-48.3 -1.3,-22.7 0.1,-48.6 3.4,-65.7 1.4,-7.2 2.5,-14.6 2.5,-16.6 0,-2 0.7,-5.6 1.6,-8 0.8,-2.4 2.1,-7.3 2.9,-10.9 2.9,-13.5 9.9,-32.8 17.2,-47.4 8.1,-16.3 15.3,-29.2 19.2,-34.6 9.8,-13.5 27.2,-31.6 37.7,-39.5 13.3,-10 32,-17.9 49.9,-21 11.7,-2.1 31.3,-1.7 41,0.8 3.3,0.8 8.4,2 11.3,2.6 6.4,1.3 28.6,10.6 39.9,16.7 13.2,7.2 42,32.5 51.1,44.9 4,5.6 8.4,11.1 11,13.8 1.4,1.5 2.8,1.8 7.3,1.5 5.2,-0.4 8.7,-2.2 46.8,-23.8 43.30003,-24.6 45.10003,-25.9 45.10003,-32.6 0,-3.7 -1.8,-7 -10.9,-20 -13.20003,-18.7 -33.90003,-40.9 -56.20003,-60.2 -12.1,-10.5 -38.9,-27.4 -54.9,-34.7 -13.9,-6.4 -39.2,-15.2 -51.5,-18 -7.2,-1.7 -48.9,-6.6 -53.5,-6.4 -1.4,0.1 -8.3,0.6 -15.5,1 z" />
  <path
     style="fill:#000000;stroke:none"
     inkscape:connector-curvature="0"
     id="path20"
     d="m 3338.7154,420.7997 c -1.8,1 -4.2,3.2 -5.2,5 -2,3.2 -2,7 -2,335.8 0,303.5 0.1,332.8 1.6,335.7 3.5,7 0.9,6.7 51.5,6.7 48.5,0 46.8,0.2 50.3,-5 1.5,-2.2 1.6,-13.7 1.6,-135.8 l 0,-133.4 2.2,-3.9 c 4.2,-7.4 -5.5,-7 143.3,-6.7 l 133,0.3 3.7,2.3 c 2.6,1.6 4,3.4 4.8,6 0.6,2.4 1,48.8 1,135.9 0,92.9 0.3,132.9 1.1,134.6 2.6,5.7 2.6,5.7 52.1,5.7 l 45.4,0 3,-3.1 2.9,-3 0.3,-334.2 c 0.3,-316.4 0.2,-334.4 -1.5,-337.5 -0.9,-1.9 -3.4,-4.2 -5.5,-5.3 -3.5,-1.8 -6.3,-1.9 -45.9,-1.9 -41,0 -42.3,0.1 -45.5,2.1 -6.9,4.2 -6.4,-7.9 -6.4,143.9 0,93.4 -0.3,138.7 -1.1,141.3 -0.7,2.6 -2.1,4.4 -4.2,5.7 -3.1,1.9 -6.3,2 -139.8,2 l -136.6,0 -2,-2.3 c -1.1,-1.2 -2.6,-3.2 -3.2,-4.4 -0.8,-1.6 -1.1,-40.3 -1.1,-141.5 l 0,-139.4 -2.7,-2.6 c -5.3,-4.8 -4.9,-4.8 -49.5,-4.8 -38.3,0.1 -42.6,0.2 -45.6,1.8 z" />
  <path
     style="fill:#000000;stroke:none"
     inkscape:connector-curvature="0"
     id="path22"
     d="m 4158.9154,433.3997 c -5.4,2.5 -9.1,6.3 -10,10.5 -1.5,6.6 -200.7,649.7 -201.5,650.8 -0.6,0.6 -0.7,2.3 -0.3,3.7 1.4,5.7 0.5,5.6 54.4,5.6 l 49.6,0 4.2,-3.1 c 2.4,-1.7 4.9,-4.8 5.8,-6.8 0.8,-2 10.5,-32.6 21.5,-68.1 11,-35.5 20.6,-66.3 21.4,-68.5 1.7,-4.5 6.4,-8.2 12.2,-9.6 2.1,-0.5 43.6,-0.8 92.3,-0.8 l 88.5,0 5.5,2.7 c 4.2,2.1 6.1,3.8 8.2,7.4 1.7,2.9 10.3,30 22.3,69.5 10.7,35.7 20.2,66.2 21,68 0.7,1.7 3.1,4.4 5.1,6 l 3.7,2.8 49.9,0.3 c 32.4,0.2 50.5,-0.1 51.7,-0.8 1.1,-0.5 2.2,-2.3 2.6,-3.8 0.4,-2.1 -25,-85.5 -100.5,-329.8 -55.6,-179.8 -101.9,-328.3 -102.8,-329.9 -1,-1.8 -4,-4.1 -7.1,-5.8 l -5.5,-2.7 -43.5,0 -43.6,0 -5.1,2.4 z m 51.3,198.5 c 2.4,3.9 62.3,198 62.3,202 0,3.1 -0.6,4.4 -2.6,6 -2.6,2.1 -3.5,2.1 -63,2.1 l -60.3,0 -2.5,-3.3 -2.6,-3.4 3.8,-11.9 c 2.2,-6.5 16.2,-52.2 31.2,-101.4 15.1,-49.2 27.8,-90.1 28.3,-90.8 1.4,-1.8 4.1,-1.5 5.4,0.7 z" />
  <path
     style="fill:#000000;stroke:none"
     inkscape:connector-curvature="0"
     id="path30"
     d="m 4943.5475,216.36685 c -1.2888,4.06238 -1.2888,609.11687 0,613.17924 1.2888,4.06238 845.9976,4.06238 847.2864,0 1.2888,-4.06237 1.2888,-609.11686 0,-613.17924 -1.2888,-4.06237 -845.9976,-4.06237 -847.2864,0 z m 842.8893,306.58963 0,92.00077 -419.2461,0 -419.2461,0 0,-92.00077 0,-92.00079 419.2461,0 419.2461,0 0,92.00079 z m 0,200.72898 0,92.00077 -419.2461,0 -419.2461,0 0,-92.00077 0,-92.00079 419.2461,0 419.2461,0 0,92.00079 z" />
  <path
     style="opacity:1;fill:#235dc9;fill-opacity:1;stroke:#000000;stroke-width:2.21987271;stroke-linecap:round;stroke-linejoin:round;stroke-miterlimit:4;stroke-dasharray:none;stroke-dashoffset:0;stroke-opacity:1"
     d="m 4948.3528,524.05436 0,-97.38346 418.8214,0 418.8214,0 0,97.38346 0,97.38373 -418.8214,0 -418.8214,0 0,-97.38373 z"
     id="path3362"
     inkscape:connector-curvature="0" />
  <path
     style="opacity:1;fill:#f01e24;fill-opacity:1;stroke:#000000;stroke-width:2.21987271;stroke-linecap:round;stroke-linejoin:round;stroke-miterlimit:4;stroke-dasharray:none;stroke-dashoffset:0;stroke-opacity:1"
     d="m 4948.3527,727.60777 0,-97.38346 418.8215,0 418.8215,0 0,97.38346 0,97.38372 -418.8215,0 -418.8215,0 0,-97.38372 z"
     id="path3364"
     inkscape:connector-curvature="0" />
  <path
     id="path4161-2"
     style="font-style:normal;font-variant:normal;font-weight:normal;font-stretch:normal;font-size:470px;line-height:125%;font-family:FreesiaUPC;-inkscape-font-specification:FreesiaUPC;letter-spacing:0px;word-spacing:0px;fill:#000000;fill-opacity:1;stroke:none;stroke-width:1px;stroke-linecap:butt;stroke-linejoin:miter;stroke-opacity:1"
     d="m 5050.6569,912.00759 56.8842,0 q 13.879,0 24.337,2.3715 10.556,2.2637 19.9389,8.408 9.4807,6.1443 17.7885,17.0315 21.6004,28.1344 21.6004,70.60541 0,39.5607 -18.766,68.0185 -20.4274,31.7994 -57.6662,31.7994 l -64.1168,0 0,-198.23431 z m 55.3204,176.99881 q 17.2997,0 29.1262,-5.3898 11.9242,-5.4974 20.0366,-19.7264 12.9016,-21.7745 12.9016,-53.4662 0,-34.60202 -16.0292,-57.77781 -8.5033,-11.6419 -19.3524,-15.738 -10.849,-4.204 -26.6828,-4.204 l -32.8404,0 0,156.30221 32.8404,0 z m -66.5689,-185.88071 66.7822,0 q 16.294,0 28.5718,2.5244 12.3926,2.4097 23.4082,8.9502 11.1304,6.5406 20.8838,18.1299 25.3589,29.9487 25.3589,75.15871 0,42.1118 -22.0313,72.4048 -23.9819,33.8501 -67.7002,33.8501 l -75.2734,0 0,-211.01811 z m 64.9463,188.41311 q 20.31,0 34.1943,-5.7373 13.999,-5.852 23.523,-20.9985 15.1465,-23.1787 15.1465,-56.9141 0,-36.83351 -18.8184,-61.50391 -9.9829,-12.3926 -22.7197,-16.7529 -12.7368,-4.4751 -31.3257,-4.4751 l -38.5547,0 0,166.38181 38.5547,0 z"
     inkscape:connector-curvature="0" />
  <path
     id="path4163-4-9"
     style="font-style:normal;font-variant:normal;font-weight:normal;font-stretch:normal;font-size:470px;line-height:125%;font-family:FreesiaUPC;-inkscape-font-specification:FreesiaUPC;letter-spacing:0px;word-spacing:0px;fill:#000000;fill-opacity:1;stroke:none;stroke-width:1px;stroke-linecap:butt;stroke-linejoin:miter;stroke-opacity:1"
     d="m 5294.3086,1100.628 0,-192.15303 72.0773,0 q 35.3342,0 52.4731,12.8521 10.6825,7.8364 16.0825,19.8526 5.5173,11.9116 5.5173,25.077 0,24.76373 -18.7824,40.64573 -17.7258,15.3597 -51.4166,15.3597 l -49.0689,0 0,78.3659 -26.8823,0 z m 72.6643,-98.0095 q 22.4214,0 34.5124,-10.2399 11.6217,-9.71733 11.6217,-26.12193 0,-20.0616 -14.9084,-30.4059 -10.5652,-7.3141 -28.878,-7.3141 l -48.1297,0 0,74.08183 45.782,0 z m -71.4107,111.4118 0,-210.66453 76.7207,0 c 25.0738,0 43.6917,4.7835 55.8537,14.3504 7.5805,5.8334 13.2867,13.2224 17.1186,22.1671 3.9151,8.8669 5.8727,18.2005 5.8727,28.0008 0,18.43373 -6.6641,33.56183 -19.9924,45.38433 -12.5785,11.4336 -30.8215,17.1504 -54.729,17.1504 l -52.2302,0 0,83.6115 z m 77.3456,-105.5453 c 15.9106,0 28.1559,-3.8112 36.7359,-11.4336 8.2469,-7.2335 12.3703,-16.95603 12.3703,-29.16733 0,-14.9337 -5.2896,-26.2506 -15.869,-33.9509 -7.497,-5.4445 -17.7431,-8.1668 -30.7382,-8.1668 l -51.2305,0 0,82.71863 z m -86.7847,105.659 0,-211.01803 80.0978,0 q 39.2663,0 58.3123,14.1138 11.8712,8.6059 17.8721,21.8017 6.1311,13.0811 6.1311,27.5391 0,27.19483 -20.8724,44.63613 -19.6982,16.8677 -57.1381,16.8677 l -54.5291,0 0,86.0596 -29.8737,0 z m 80.7502,-107.6318 q 24.9164,0 38.353,-11.2451 12.9148,-10.6714 12.9148,-28.68653 0,-22.0312 -16.5676,-33.3911 -11.7405,-8.0322 -32.0912,-8.0322 l -53.4855,0 0,81.35493 50.8765,0 z"
     inkscape:connector-curvature="0" />
  <path
     id="path4163-4-9-6"
     style="font-style:normal;font-variant:normal;font-weight:normal;font-stretch:normal;font-size:470px;line-height:125%;font-family:FreesiaUPC;-inkscape-font-specification:FreesiaUPC;letter-spacing:0px;word-spacing:0px;fill:#000000;fill-opacity:1;stroke:none;stroke-width:1px;stroke-linecap:butt;stroke-linejoin:miter;stroke-opacity:1"
     d="m 5529.3149,1100.628 0,-192.15313 71.8501,0 q 35.223,0 52.3079,12.8521 10.6488,7.8364 16.0318,19.8526 5.5,11.9116 5.5,25.077 0,24.76373 -18.7234,40.64583 -17.6699,15.3597 -51.2545,15.3597 l -48.9143,0 0,78.3659 -26.7976,0 z m 72.4353,-98.0095 q 22.3508,0 34.4037,-10.24 11.5851,-9.71733 11.5851,-26.12193 0,-20.0616 -14.8615,-30.4059 -10.5319,-7.3141 -28.787,-7.3141 l -47.978,0 0,74.08193 45.6377,0 z m -71.1857,111.4118 0,-210.66463 76.479,0 c 24.9948,0 43.5541,4.7835 55.6778,14.3504 7.5566,5.8334 13.2448,13.2224 17.0646,22.1671 3.9028,8.8669 5.8542,18.2005 5.8542,28.0008 0,18.43373 -6.6431,33.56193 -19.9294,45.38443 -12.5389,11.4336 -30.7245,17.1504 -54.5566,17.1504 l -52.0656,0 0,83.6115 z m 77.1019,-105.5453 c 15.8605,0 28.0672,-3.8112 36.6202,-11.4337 8.221,-7.2335 12.3314,-16.95603 12.3314,-29.16733 0,-14.9337 -5.273,-26.2506 -15.819,-33.9509 -7.4735,-5.4445 -17.6873,-8.1668 -30.6414,-8.1668 l -51.0691,0 0,82.71873 z m -86.5112,105.659 0,-211.01813 79.8454,0 q 39.1426,0 58.1286,14.1138 11.8337,8.6059 17.8158,21.8017 6.1118,13.0811 6.1118,27.5391 0,27.19483 -20.8066,44.63623 -19.6363,16.8677 -56.9581,16.8677 l -54.3573,0 0,86.0596 -29.7796,0 z m 80.4957,-107.6318 q 24.8379,0 38.2322,-11.2452 12.8741,-10.6714 12.8741,-28.68653 0,-22.0312 -16.5153,-33.3911 -11.7036,-8.0322 -31.9902,-8.0322 l -53.3169,0 0,81.35503 50.7161,0 z m 44.6731,107.315 -38.9369,-81.3977 -58.2278,-9.8255 0,91.2232 -28.524,0 0,-211.01813 86.1946,0 c 22.4206,0 39.6097,4.2074 51.5673,12.6221 16.3588,11.2451 24.5381,26.7741 24.5381,46.5869 0,12.6221 -3.7782,23.90543 -11.3348,33.85013 -7.5566,9.9447 -17.895,16.6764 -31.0152,20.1953 l 44.8412,97.7637 z m -42.9817,-112.7954 c 9.2174,0 16.7739,-0.7267 22.6697,-2.1802 5.9788,-1.5299 11.5009,-4.7046 16.5663,-9.5239 7.8057,-7.19083 11.7085,-16.44703 11.7085,-27.76863 0,-13.1575 -5.273,-23.0257 -15.819,-29.6045 -7.3073,-4.3603 -17.8534,-6.5405 -31.6379,-6.5405 l -57.6706,0 0,75.61773 z"
     inkscape:connector-curvature="0" />
</svg>
